<svg width="32" height="32" viewBox="0 0 32 32" fill="none" xmlns="http://www.w3.org/2000/svg">
  <!-- Panda detective looking through magnifying glass -->
  <g transform="translate(16, 16)">
    <!-- Panda head (tilted to look through magnifying glass) -->
    <g transform="rotate(-3 0 -3)">
      <circle cx="0" cy="-3" r="5" fill="currentColor" opacity="0.1"/>
      
      <!-- Panda ears (larger) -->
      <circle cx="-3" cy="-6" r="2" fill="currentColor" opacity="0.8"/>
      <circle cx="3" cy="-6" r="2" fill="currentColor" opacity="0.8"/>
      
      <!-- Panda eye patches (larger) -->
      <ellipse cx="-2" cy="-4" rx="1.5" ry="2" fill="currentColor" opacity="0.8"/>
      <ellipse cx="2" cy="-4" rx="1.5" ry="2" fill="currentColor" opacity="0.8"/>
      
      <!-- Serious focused eyes looking through magnifying glass -->
      <ellipse cx="-2" cy="-3.5" rx="0.5" ry="0.3" fill="currentColor" opacity="0.1"/>
      <ellipse cx="2" cy="-3.5" rx="0.5" ry="0.3" fill="currentColor" opacity="0.1"/>
      <ellipse cx="-1.8" cy="-3.5" rx="0.25" ry="0.15" fill="currentColor" opacity="0.8"/>
      <ellipse cx="2.2" cy="-3.5" rx="0.25" ry="0.15" fill="currentColor" opacity="0.8"/>
      
      <!-- Serious eyebrows -->
      <path d="M-2.8 -4.2 L-1.2 -4" stroke="currentColor" stroke-width="0.5" stroke-linecap="round" opacity="0.8"/>
      <path d="M1.2 -4 L2.8 -4.2" stroke="currentColor" stroke-width="0.5" stroke-linecap="round" opacity="0.8"/>
      
      <!-- Panda nose (larger) -->
      <ellipse cx="0" cy="-1.5" rx="0.4" ry="0.3" fill="currentColor" opacity="0.8"/>
      
      <!-- Serious mouth (straight line) -->
      <path d="M-1 -0.5 L1 -0.5" stroke="currentColor" stroke-width="0.5" stroke-linecap="round" opacity="0.8"/>
    </g>
    
    <!-- Magnifying glass positioned for panda to look through -->
    <g transform="translate(6, -1)">
      <!-- Handle -->
      <path d="M0 0 L-3.5 3.5" stroke="#8b4513" stroke-width="1.8" stroke-linecap="round"/>
      
      <!-- Lens -->
      <circle cx="0" cy="0" r="3.5" fill="none" stroke="#8b4513" stroke-width="1.8"/>
      <circle cx="0" cy="0" r="2.5" fill="rgba(255,255,255,0.3)"/>
      
      <!-- JS text inside the lens -->
      <text x="0" y="0.8" font-family="monospace" font-size="2.2" font-weight="bold" fill="#f1c40f" text-anchor="middle">
        JS
      </text>
    </g>
  </g>
</svg>
