<?xml version="1.0" standalone="no"?>
<!DOCTYPE svg PUBLIC "-//W3C//DTD SVG 20010904//EN"
 "http://www.w3.org/TR/2001/REC-SVG-20010904/DTD/svg10.dtd">
<svg version="1.0" xmlns="http://www.w3.org/2000/svg"
 width="300.000000pt" height="300.000000pt" viewBox="0 0 300.000000 300.000000"
 preserveAspectRatio="xMidYMid meet">
<metadata>
Created by potrace 1.10, written by Peter Selinger 2001-2011
</metadata>
<g transform="translate(0.000000,300.000000) scale(0.100000,-0.100000)"
fill="#000000" stroke="none">
<path d="M1136 2750 c-16 -5 -34 -6 -39 -3 -6 3 -7 1 -4 -4 4 -6 -1 -17 -10
-24 -15 -12 -16 -12 -10 4 9 24 0 21 -14 -4 -9 -17 -8 -20 2 -14 9 6 10 3 4
-11 -5 -10 -25 -68 -45 -128 -20 -61 -42 -112 -48 -114 -7 -2 -10 -8 -7 -12 3
-5 -5 -33 -19 -63 l-23 -54 131 -11 c131 -12 544 -38 729 -45 53 -3 97 -1 97
4 0 5 -4 9 -8 9 -5 0 -14 23 -21 52 -9 41 -9 53 1 60 10 6 9 8 -2 8 -11 0 -21
29 -38 108 -43 197 -66 223 -187 215 -44 -3 -122 3 -211 16 -149 22 -229 25
-278 11z m294 -40 c91 -10 189 -18 217 -18 81 2 95 -16 133 -172 12 -46 26
-93 32 -103 9 -18 7 -19 -64 -14 -40 2 -224 13 -408 22 -184 10 -336 19 -338
21 -2 1 3 13 11 26 9 12 23 50 32 83 10 33 26 77 36 97 21 41 62 74 79 63 5
-3 10 -2 10 4 0 15 72 12 260 -9z m-169 -290 c85 -5 233 -14 329 -20 96 -6
182 -13 191 -16 19 -5 39 -46 39 -79 0 -23 -4 -25 -42 -25 -62 0 -675 38 -743
46 l-57 7 5 34 c12 70 13 70 278 53z"/>
<path d="M996 2564 c-4 -14 -5 -28 -3 -31 3 -2 8 8 11 23 4 14 5 28 3 31 -3 2
-8 -8 -11 -23z"/>
<path d="M825 2286 c-164 -46 -294 -91 -292 -101 5 -15 96 -43 206 -62 l100
-17 7 -53 c3 -29 10 -50 15 -47 5 3 9 -3 9 -13 0 -36 51 -126 105 -186 49 -54
64 -77 51 -77 -3 0 -18 14 -34 30 -21 20 -40 30 -61 30 -28 0 -30 -3 -37 -45
-4 -31 -14 -52 -31 -65 -16 -13 -23 -25 -19 -37 4 -14 -11 -35 -55 -78 -85
-84 -141 -166 -203 -297 -131 -276 -244 -753 -220 -927 l10 -71 -59 -39 c-36
-24 -55 -41 -48 -46 8 -4 -5 -22 -35 -50 -42 -39 -46 -46 -33 -61 9 -12 10
-18 3 -21 -6 -2 -26 -15 -44 -28 l-34 -25 31 0 c26 0 41 11 84 60 29 32 59 62
67 65 7 3 27 -9 44 -25 16 -17 33 -30 36 -30 4 0 40 -16 79 -35 49 -24 86 -35
115 -35 43 1 42 1 -31 26 -92 31 -121 46 -198 100 -42 30 -60 49 -57 59 4 8
12 15 19 15 7 0 27 15 45 34 l33 33 2 134 c2 165 44 379 117 594 48 140 67
194 76 212 5 10 22 45 37 78 16 33 41 79 55 103 40 64 163 211 178 211 7 1 10
6 7 11 -3 6 -2 10 3 10 5 0 38 -30 73 -67 49 -52 77 -94 119 -180 30 -62 61
-113 68 -113 7 0 10 5 6 12 -5 8 0 9 15 5 13 -3 20 -3 17 0 -6 6 42 43 56 43
4 0 -11 -26 -33 -58 l-41 -59 46 -87 c25 -48 46 -95 46 -106 0 -10 -22 -45
-50 -76 -27 -31 -50 -63 -50 -71 0 -20 4 -17 41 37 48 70 60 70 38 -2 -11 -33
-19 -65 -18 -71 1 -17 35 63 43 100 7 28 13 32 77 49 38 10 69 21 69 24 0 15
-14 19 -32 9 -16 -9 -12 5 21 68 22 43 43 86 46 96 4 15 11 11 38 -25 44 -59
61 -97 44 -103 -6 -2 -29 -9 -50 -15 -21 -7 -36 -14 -33 -17 3 -3 20 0 38 6
38 14 45 7 84 -74 42 -88 28 -145 -35 -145 -20 0 -24 8 -36 70 -8 39 -40 107
-61 128 -23 22 -16 -4 10 -43 14 -20 28 -56 32 -80 3 -24 12 -52 19 -62 9 -12
10 -25 3 -45 -5 -15 -8 -33 -5 -40 2 -7 8 4 12 25 5 28 12 37 27 37 11 0 28 5
39 10 16 9 19 7 19 -12 0 -13 -7 -33 -15 -45 l-15 -21 50 16 c49 15 51 15 65
-5 8 -12 28 -26 45 -31 36 -13 43 -7 96 82 27 47 44 66 59 66 57 1 105 48 105
105 0 12 7 25 15 29 9 3 15 18 15 36 0 20 5 30 15 30 10 0 15 10 15 28 0 32
-16 52 -42 52 -22 0 -23 12 -3 51 9 16 13 34 10 39 -3 5 -1 27 6 49 l12 40 61
-6 c50 -4 70 -2 104 15 23 11 42 18 42 16 0 -3 -26 -49 -58 -102 -32 -53 -94
-160 -137 -237 -43 -77 -94 -162 -112 -190 -28 -42 -31 -52 -19 -61 8 -5 69
-18 134 -28 l120 -18 6 -30 c9 -45 8 -52 -9 -38 -13 10 -15 9 -15 -10 0 -20
-4 -21 -62 -18 l-63 4 -5 54 c-6 62 -20 46 -20 -21 0 -22 -3 -38 -7 -36 -5 3
-42 8 -83 11 -97 9 -121 15 -145 36 -36 32 -104 70 -109 61 -3 -4 10 -15 30
-24 20 -10 41 -31 50 -51 20 -42 28 -43 234 -57 85 -5 162 -12 171 -14 10 -3
21 4 29 20 14 27 25 31 35 15 4 -7 13 -6 27 1 15 8 35 7 81 -6 61 -16 63 -16
133 8 39 13 80 33 92 45 12 12 35 28 51 37 36 18 51 43 51 85 0 23 43 102 155
287 85 141 155 261 155 267 0 6 15 46 34 89 22 49 30 77 22 77 -14 0 -26 -24
-58 -107 -18 -49 -22 -53 -52 -53 -17 0 -36 4 -42 10 -5 5 -88 32 -184 60
-332 95 -335 96 -307 104 14 3 32 3 41 0 12 -5 24 12 51 66 103 215 80 437
-52 516 -64 38 -155 59 -222 50 -47 -6 -57 -3 -170 54 -67 33 -126 60 -133 60
-25 0 28 -39 110 -80 45 -24 85 -47 88 -52 12 -19 -7 -19 -68 0 -35 11 -101
26 -148 32 -47 6 -141 19 -210 29 -83 13 -127 16 -131 9 -4 -7 -70 -9 -190 -5
l-184 5 150 -9 c159 -10 175 -13 175 -28 0 -11 -12 -23 -74 -75 -26 -21 -55
-55 -65 -74 l-18 -36 -20 45 c-27 59 -56 87 -97 95 -54 10 -92 -4 -122 -43
-51 -67 -42 -167 21 -240 34 -40 43 -62 28 -64 -45 -8 -55 -5 -64 18 -5 14
-30 53 -55 87 -41 56 -80 146 -98 228 -7 31 -41 52 -101 62 -80 13 -95 18 -89
27 3 5 20 10 37 10 l32 2 -30 4 c-65 9 -55 16 61 47 66 18 131 40 144 49 l24
17 -24 -1 c-14 0 -61 -11 -105 -23z m855 -137 c80 -11 191 -32 248 -45 90 -21
106 -22 125 -10 12 7 54 17 92 20 l70 7 -60 -29 c-33 -16 -83 -50 -112 -76
-60 -54 -148 -188 -139 -212 3 -8 2 -12 -4 -9 -19 12 -45 -107 -45 -212 0 -95
-1 -100 -15 -75 -9 17 -16 66 -18 138 l-4 110 42 84 c28 56 61 103 100 142 32
32 54 58 50 58 -5 0 -7 7 -3 16 18 48 -96 -61 -142 -135 -58 -95 -78 -167 -79
-286 -1 -101 1 -115 27 -167 26 -54 53 -83 106 -118 23 -15 23 -16 5 -53 -10
-20 -24 -37 -31 -37 -7 0 -20 -18 -29 -40 -13 -32 -24 -42 -60 -56 -27 -10
-61 -35 -83 -61 -27 -30 -46 -43 -64 -43 -40 0 -40 -15 -2 -53 30 -30 35 -42
35 -80 0 -25 -5 -49 -11 -53 -6 -3 -8 -17 -5 -30 10 -38 -13 -72 -58 -87 l-41
-14 4 78 c3 67 0 85 -23 136 -15 31 -32 61 -39 65 -8 5 0 11 20 19 l33 11 -33
38 c-43 51 -137 209 -137 231 0 13 11 20 35 25 19 3 35 9 35 13 0 4 -18 36
-39 72 -21 35 -38 65 -37 66 0 1 26 -7 56 -17 61 -21 131 -25 160 -10 20 11
61 74 80 124 17 45 -11 17 -39 -38 -38 -77 -83 -92 -185 -61 -27 8 -67 15 -89
15 l-39 0 7 -37 c5 -21 11 -56 15 -78 6 -38 7 -39 14 -13 5 15 14 32 22 38 20
18 31 -35 12 -58 -21 -23 -31 -69 -17 -77 6 -4 8 -13 5 -21 -3 -8 0 -13 6 -11
6 1 13 -4 16 -12 3 -8 0 -11 -7 -7 -7 5 -9 1 -4 -9 5 -13 7 -14 14 -3 7 10 9
10 9 0 0 -7 -25 -61 -55 -121 -54 -109 -81 -146 -71 -99 21 97 37 240 33 279
-3 27 -2 51 3 54 11 7 -12 87 -26 92 -5 2 -18 -11 -28 -29 l-19 -32 -12 35
c-32 92 -79 163 -169 257 l-61 64 34 -4 c28 -3 38 3 66 37 l34 39 -37 21 c-53
29 -85 94 -79 163 5 68 34 102 89 102 58 0 95 -39 111 -117 22 -107 57 -112
78 -12 13 59 18 66 69 105 30 23 66 60 80 82 18 30 30 40 45 37 11 -2 85 -14
165 -26z m653 -109 c90 -71 98 -266 18 -437 -59 -125 -196 -233 -296 -233 -43
0 -52 4 -86 40 -116 122 -79 376 78 542 31 31 78 69 106 83 65 32 143 34 180
5z m-1311 -333 c95 -93 144 -159 200 -271 42 -84 53 -117 64 -196 17 -115 17
-182 3 -234 -13 -46 -21 -40 -44 34 -10 30 -30 80 -46 111 l-27 55 39 62 c21
34 39 64 39 67 0 11 -27 4 -77 -22 -28 -15 -54 -25 -57 -22 -3 3 -7 18 -8 32
-1 15 -5 27 -9 27 -4 0 -12 15 -18 32 -10 28 -54 101 -71 118 -3 3 -36 38 -73
77 l-68 72 21 21 c11 11 28 38 37 60 10 22 21 40 25 40 4 0 35 -28 70 -63z
m1378 -69 c-11 -30 -27 -63 -35 -74 -8 -10 -1 13 15 51 16 39 30 79 31 90 1
15 2 16 6 4 2 -9 -5 -41 -17 -71z m-491 -194 c20 -43 40 -70 61 -82 29 -17 39
-32 20 -32 -16 0 -88 81 -106 119 -11 22 -18 67 -20 125 l-3 91 9 -79 c6 -51
20 -101 39 -142z m467 25 c24 -6 44 -16 44 -21 0 -5 -17 -16 -37 -25 -21 -8
-50 -24 -65 -34 -14 -11 -33 -19 -42 -19 -9 0 -16 -4 -16 -9 0 -15 28 -6 95
28 33 17 66 31 73 31 8 0 84 -21 170 -46 87 -25 165 -48 175 -50 24 -7 22 -20
-11 -73 -50 -79 -85 -147 -70 -131 9 8 34 47 56 85 67 115 68 115 115 113 l42
-1 -38 -4 c-36 -4 -38 -6 -32 -30 7 -29 -10 -54 -31 -46 -8 3 -14 0 -14 -5 0
-6 10 -14 21 -17 12 -4 17 -10 12 -14 -5 -3 -12 -14 -16 -24 -5 -13 -13 -16
-34 -11 -24 6 -26 5 -16 -7 15 -19 -6 -61 -118 -238 -44 -68 -82 -134 -85
-147 -3 -13 -10 -24 -15 -24 -5 0 -9 -9 -9 -19 0 -26 -61 -75 -72 -58 -5 8 -8
6 -8 -5 0 -17 -45 -36 -57 -25 -3 3 -12 0 -20 -8 -17 -17 -51 -19 -88 -5 -15
6 -45 11 -67 12 -30 1 -42 6 -48 22 -4 12 -3 24 2 27 5 3 -24 16 -64 29 -80
25 -102 43 -118 98 -9 35 -6 43 52 142 112 193 187 327 194 346 6 18 5 18 -10
-1 -15 -19 -16 -19 -5 10 14 40 91 165 102 165 4 0 28 -5 53 -11z m-107 -25
c-13 -14 -33 -30 -44 -36 -11 -5 -2 6 20 26 47 42 58 46 24 10z m-29 -63 c0
-15 -29 -33 -41 -25 -9 5 -7 11 6 21 22 15 35 17 35 4z m-917 -17 c3 -4 2 -16
-4 -26 -13 -24 -35 -9 -26 16 7 17 19 21 30 10z m-4 -86 c-1 -31 -1 -31 -8 -8
-5 14 -6 28 -4 33 9 15 13 6 12 -25z m636 -49 c16 -16 -20 -10 -41 7 -18 14
-18 15 6 8 14 -3 29 -10 35 -15z m-27 -46 c-3 -38 -21 -52 -53 -39 -12 4 -11
12 6 41 29 48 51 47 47 -2z m197 -50 c-15 -27 -32 -52 -38 -58 -6 -5 2 13 18
40 15 28 30 53 32 58 2 4 7 7 10 7 2 0 -7 -21 -22 -47z m-166 -22 c22 -20 19
-56 -4 -47 -9 3 -13 -6 -13 -27 0 -48 -20 -112 -39 -129 -10 -9 -29 -19 -42
-23 -33 -10 -52 -30 -95 -98 -42 -65 -60 -77 -84 -54 -14 15 -14 18 0 34 8 10
13 24 10 32 -2 7 8 24 24 38 23 19 24 22 7 13 -26 -12 -28 -5 -13 35 7 20 5
40 -9 82 l-19 55 41 37 c22 20 49 44 60 54 29 25 146 24 176 -2z m100 -93
c-12 -24 -39 -73 -60 -110 l-39 -66 22 -51 c11 -28 18 -54 15 -57 -3 -4 -29
-1 -56 6 l-50 12 32 51 c18 29 59 98 91 155 59 104 84 137 45 60z m511 -269
c-18 -43 -24 -28 -8 23 8 27 14 36 16 25 2 -10 -2 -32 -8 -48z"/>
<path d="M1797 2086 c-12 -27 -14 -43 -7 -50 17 -17 32 8 28 50 l-3 39 -18
-39z"/>
<path d="M1480 2080 c-11 -7 -3 -10 30 -10 33 0 41 3 30 10 -8 5 -22 10 -30
10 -8 0 -22 -5 -30 -10z"/>
<path d="M1588 2064 c-52 -22 -48 -32 11 -26 31 3 67 -2 95 -11 43 -15 47 -15
56 3 7 13 5 21 -6 31 -24 20 -113 21 -156 3z"/>
<path d="M1097 2024 c-15 -15 -6 -22 25 -20 25 1 35 -5 45 -24 11 -23 10 -25
-10 -30 -37 -9 -32 -90 6 -90 5 0 2 9 -7 19 -26 28 -13 65 20 57 31 -8 31 10
1 55 -22 32 -63 49 -80 33z"/>
<path d="M1781 1994 c-22 -49 -26 -119 -7 -145 18 -27 21 -14 6 27 -8 20 -7
39 6 76 18 55 15 85 -5 42z"/>
<path d="M1590 1968 c-19 -13 -36 -30 -38 -38 -3 -9 4 -7 20 8 31 28 92 40
113 22 20 -17 32 -5 15 15 -18 22 -72 18 -110 -7z"/>
<path d="M1650 1935 c0 -9 -4 -14 -9 -11 -11 7 -25 -49 -16 -64 19 -31 69 18
63 62 -4 26 -38 38 -38 13z"/>
<path d="M1180 1738 c0 -7 16 -61 35 -120 33 -104 76 -178 103 -178 22 0 12
24 -23 59 -32 32 -65 105 -71 158 -4 37 -25 93 -35 93 -5 0 -9 -6 -9 -12z"/>
<path d="M1725 1740 c-3 -5 -4 -14 -1 -19 3 -5 0 -24 -7 -43 -11 -33 -14 -34
-43 -26 -18 4 -46 21 -63 37 -17 16 -31 26 -31 22 0 -13 55 -60 83 -70 47 -18
56 -14 68 34 7 26 17 45 25 45 19 0 18 16 -2 24 -21 8 -22 8 -29 -4z"/>
<path d="M1120 1676 c0 -4 23 -35 50 -68 28 -33 50 -57 50 -53 0 14 -99 135
-100 121z"/>
<path d="M1247 1628 c14 -27 83 -98 96 -98 7 0 -2 12 -20 26 -18 13 -44 39
-59 57 -14 18 -22 25 -17 15z"/>
<path d="M1563 1015 c11 -7 25 -11 33 -8 22 8 6 23 -24 23 -25 -1 -26 -2 -9
-15z"/>
<path d="M2340 1462 c8 -5 26 -13 40 -16 17 -5 20 -4 10 2 -8 5 -26 13 -40 16
-17 5 -20 4 -10 -2z"/>
<path d="M2413 1283 c-11 -15 -28 -44 -37 -64 -13 -28 -23 -36 -42 -36 -34 0
-64 -30 -64 -64 0 -46 49 -83 99 -73 22 5 37 1 57 -15 31 -25 55 -26 93 -7 33
18 53 46 69 102 7 23 19 47 27 54 22 18 18 55 -8 86 -17 19 -34 27 -67 30 -25
1 -59 6 -76 9 -27 6 -34 3 -51 -22z m67 -10 c0 -3 -21 -45 -46 -94 -36 -69
-52 -91 -72 -96 -33 -8 -56 8 -60 41 -3 21 1 26 17 26 12 0 21 -7 21 -15 0
-39 31 -7 68 70 31 64 45 83 56 79 9 -3 16 -8 16 -11z m110 -27 c16 -20 9 -60
-12 -64 -13 -2 -18 3 -18 17 0 14 -6 21 -20 21 -30 0 -36 -28 -11 -54 30 -32
27 -69 -10 -100 -17 -14 -38 -26 -48 -26 -27 0 -54 35 -46 59 8 27 31 27 38 0
4 -13 12 -20 24 -17 26 5 27 33 2 67 -20 27 -21 33 -9 61 7 17 20 35 29 40 24
14 67 12 81 -4z"/>
<path d="M2452 838 c-7 -7 -12 -16 -12 -22 0 -5 6 -1 14 10 19 25 45 10 63
-37 l13 -34 -6 35 c-9 50 -46 74 -72 48z"/>
<path d="M2403 803 c18 -5 47 -52 47 -77 0 -8 4 -17 10 -21 5 -3 3 15 -5 41
-14 48 -29 64 -55 63 -10 -1 -10 -3 3 -6z"/>
<path d="M2364 750 c3 -14 9 -41 14 -60 8 -28 10 -30 10 -10 0 14 -6 41 -14
60 -9 24 -13 27 -10 10z"/>
<path d="M887 2193 c18 -2 50 -2 70 0 21 2 7 4 -32 4 -38 0 -55 -2 -38 -4z"/>
<path d="M896 1498 c-9 -12 -16 -30 -16 -40 0 -10 -7 -18 -15 -18 -33 0 -116
-95 -115 -132 1 -7 10 5 22 27 44 85 95 115 167 95 58 -15 90 -60 188 -262 48
-98 90 -178 95 -178 8 0 -15 65 -31 84 -5 6 -38 70 -75 141 -36 72 -81 149
-101 173 -27 31 -35 48 -30 64 5 19 4 20 -4 7 -9 -14 -17 -15 -51 -7 -45 12
-46 14 -24 46 8 12 13 22 10 22 -3 0 -12 -10 -20 -22z"/>
<path d="M935 1511 c-8 -15 3 -31 21 -31 9 0 14 7 12 17 -4 20 -24 28 -33 14z"/>
<path d="M2856 1491 c-17 -19 -25 -85 -12 -98 3 -4 6 11 6 32 0 26 7 46 22 62
12 13 17 23 11 23 -5 0 -18 -9 -27 -19z"/>
<path d="M2907 1468 c-9 -31 -2 -33 11 -3 6 14 8 25 3 25 -5 0 -11 -10 -14
-22z"/>
<path d="M2867 1463 c-4 -3 -6 -29 -6 -57 l2 -51 7 55 c7 59 7 64 -3 53z"/>
<path d="M2660 1425 c14 -8 30 -14 35 -14 6 0 -1 6 -15 14 -14 8 -29 14 -35
14 -5 0 1 -6 15 -14z"/>
<path d="M740 1142 c0 -7 19 -49 41 -94 l41 -82 -33 25 c-19 14 -47 44 -64 67
-35 48 -52 55 -30 12 9 -16 45 -54 81 -84 36 -30 82 -78 101 -108 19 -29 50
-74 69 -100 l35 -46 -58 -7 c-70 -9 -209 -51 -219 -67 -5 -8 -1 -9 12 -4 10 4
33 10 49 13 17 3 35 9 40 13 14 10 136 40 164 40 12 0 30 -7 38 -16 14 -13 14
-17 2 -25 -10 -6 -8 -9 11 -9 14 0 36 -10 49 -20 l23 -20 -37 -45 c-20 -25
-41 -45 -46 -45 -6 0 -8 -4 -5 -9 3 -5 0 -11 -8 -14 -14 -5 -76 -106 -76 -123
0 -12 35 30 117 143 l68 93 52 0 c53 0 169 21 213 39 39 15 19 13 -72 -9 -109
-26 -181 -26 -223 0 -69 43 -213 242 -291 405 -24 50 -44 84 -44 77z"/>
<path d="M1502 863 c2 -20 8 -28 23 -28 31 0 28 49 -3 53 -20 3 -23 0 -20 -25z"/>
<path d="M1475 702 c-87 -25 -143 -95 -234 -297 -106 -235 -179 -319 -328
-381 -52 -21 -55 -24 -27 -24 34 0 144 45 156 63 4 7 8 8 8 2 0 -5 11 3 23 19
13 16 33 30 45 31 12 1 19 -2 16 -6 -3 -5 -2 -31 2 -59 5 -41 10 -50 26 -50
16 0 19 5 14 30 -3 17 -8 43 -11 58 -5 23 -1 30 19 40 30 14 106 81 106 94 0
16 -43 -3 -86 -39 -39 -32 -42 -32 -47 -13 -3 12 6 44 21 74 23 46 34 57 72
71 53 21 80 41 32 24 -18 -6 -35 -9 -38 -6 -16 15 119 273 148 283 10 3 17 11
15 17 -3 16 84 59 103 51 8 -4 25 -6 38 -5 32 1 76 -23 96 -53 25 -39 20 -121
-14 -228 -35 -105 -93 -262 -121 -325 -21 -48 -16 -73 13 -73 18 0 19 2 7 16
-10 12 -10 17 -1 23 17 10 147 371 162 448 23 116 -9 177 -108 210 -52 18 -62
18 -107 5z"/>
<path d="M915 653 c-48 -19 -175 -105 -201 -136 l-19 -21 30 18 c17 10 39 27
51 37 11 11 27 19 35 19 8 0 -12 -25 -44 -55 -57 -55 -57 -56 -41 -80 9 -14
24 -25 32 -25 18 0 151 131 170 167 9 16 9 24 0 29 -6 4 -8 3 -5 -3 12 -19
-139 -183 -169 -183 -4 0 -12 8 -19 17 -11 15 -3 28 68 103 44 47 85 85 91 85
6 0 13 3 16 6 3 3 23 13 45 22 24 9 32 16 20 16 -11 0 -38 -7 -60 -16z"/>
<path d="M400 332 c0 -6 26 -38 58 -70 31 -32 41 -40 21 -18 -20 23 -45 54
-57 70 -12 16 -22 24 -22 18z"/>
<path d="M1296 190 c-10 -58 -25 -112 -32 -121 -8 -8 -14 -28 -14 -42 0 -20 5
-27 20 -27 13 0 20 7 20 20 0 12 6 33 14 48 20 38 27 108 18 172 l-7 55 -19
-105z"/>
<path d="M2590 270 c-30 -4 -67 -5 -82 -2 l-28 5 0 -137 c0 -75 4 -136 9 -136
11 0 18 45 20 144 2 77 13 112 32 100 5 -3 9 -59 9 -125 0 -74 4 -119 10 -119
7 0 8 37 4 108 -6 91 -4 109 9 120 9 8 24 12 34 10 21 -4 30 -45 14 -61 -6 -6
-11 -26 -11 -43 0 -18 -5 -36 -10 -39 -12 -7 -4 -25 11 -25 5 0 9 20 9 45 0
39 3 47 25 55 22 8 25 15 25 60 0 34 -4 50 -12 49 -7 -1 -38 -5 -68 -9z"/>
<path d="M2722 155 c-57 -9 -76 -25 -30 -25 15 0 18 -8 18 -50 0 -38 -4 -50
-15 -50 -8 0 -15 7 -15 15 0 16 -35 21 -44 6 -9 -14 3 -39 22 -46 9 -3 18 -1
20 4 2 6 28 11 57 11 l53 0 4 71 c2 39 1 72 -2 73 -3 1 -33 -3 -68 -9z m33
-72 c0 -18 -5 -28 -15 -28 -9 0 -16 11 -18 28 -3 21 1 27 15 27 14 0 19 -7 18
-27z"/>
<path d="M2410 83 c-8 -3 -26 -10 -39 -15 -13 -5 -22 -11 -19 -13 6 -6 78 23
78 30 0 3 -1 5 -2 4 -2 0 -10 -3 -18 -6z"/>
<path d="M2241 47 c-8 -11 2 -16 51 -25 34 -6 64 -10 66 -7 3 2 -14 7 -38 11
-23 4 -44 13 -47 20 -7 18 -17 18 -32 1z"/>
<path d="M2110 18 c-19 -6 -30 -12 -25 -14 6 -2 30 2 55 10 25 8 36 14 25 14
-11 0 -36 -4 -55 -10z"/>
<path d="M2175 10 c-20 -9 -20 -9 0 -9 11 0 29 4 40 9 20 9 20 9 0 9 -11 0
-29 -4 -40 -9z"/>
<path d="M2837 3 c18 -2 50 -2 70 0 21 2 7 4 -32 4 -38 0 -55 -2 -38 -4z"/>
</g>
</svg>
