<svg xmlns="http://www.w3.org/2000/svg" viewBox="0 0 96 96" role="img" aria-labelledby="title desc">
  <title id="title">Lib Comparer Logo</title>
  <desc id="desc">A balanced scale comparing libraries with a trophy indicating the best recommendation.</desc>
  <defs>
    <linearGradient id="g" x1="0" x2="1" y1="0" y2="1">
      <stop offset="0%" stop-color="#8b5cf6"/>
      <stop offset="100%" stop-color="#06b6d4"/>
    </linearGradient>
    <linearGradient id="g2" x1="0" x2="0" y1="0" y2="1">
      <stop offset="0%" stop-color="#e2e8f0" stop-opacity="0.95"/>
      <stop offset="100%" stop-color="#cbd5e1" stop-opacity="0.9"/>
    </linearGradient>
    <filter id="glow" x="-50%" y="-50%" width="200%" height="200%">
      <feGaussianBlur stdDeviation="1.4" result="b"/>
      <feMerge>
        <feMergeNode in="b"/>
        <feMergeNode in="SourceGraphic"/>
      </feMerge>
    </filter>
  </defs>

  <!-- subtle meter arc with ticks -->
  <g opacity="0.55" stroke="url(#g)" stroke-width="2" fill="none" transform="translate(48,54)">
    <path d="M-34 0a34 34 0 0 1 68 0"/>
    <g stroke-linecap="round">
      <path d="M-24 -2 v-5"/>
      <path d="M-12 -5 v-7"/>
      <path d="M0 -6 v-8"/>
      <path d="M12 -5 v-7"/>
      <path d="M24 -2 v-5"/>
    </g>
  </g>

  <!-- scale pole -->
  <g stroke="url(#g)" stroke-width="3" fill="none" stroke-linecap="round" stroke-linejoin="round">
    <path d="M48 30 v28"/>
    <path d="M36 58 h24"/>
  </g>

  <!-- left pan (library) slightly lower -->
  <g transform="translate(28,62)">
    <path d="M-8 0 h16 a2 2 0 0 1 2 2 v3 a2 2 0 0 1-2 2 h-16 a2 2 0 0 1-2-2 v-3 a2 2 0 0 1 2-2z" fill="rgba(148,163,184,0.25)" stroke="url(#g)" stroke-width="1.5"/>
  </g>

  <!-- right pan (winner) slightly higher with trophy -->
  <g transform="translate(68,58)">
    <path d="M-8 0 h16 a2 2 0 0 1 2 2 v3 a2 2 0 0 1-2 2 h-16 a2 2 0 0 1-2-2 v-3 a2 2 0 0 1 2-2z" fill="rgba(56,189,248,0.20)" stroke="url(#g)" stroke-width="1.5"/>
  </g>

  <!-- trophy -->
  <g transform="translate(68,38)" filter="url(#glow)">
    <path d="M-7 0 h14 v4 a6 6 0 0 1-6 6 h-2 a6 6 0 0 1-6-6z" fill="url(#g2)" stroke="url(#g)" stroke-width="1.5"/>
    <path d="M-9 1 a5 5 0 0 0 5 5" fill="none" stroke="url(#g)" stroke-width="1.5" stroke-linecap="round"/>
    <path d="M9 1 a5 5 0 0 1-5 5" fill="none" stroke="url(#g)" stroke-width="1.5" stroke-linecap="round"/>
    <rect x="-4" y="10" width="8" height="3" rx="1.5" fill="url(#g2)"/>
    <rect x="-6" y="13" width="12" height="3" rx="1.5" fill="url(#g)"/>
  </g>

  <!-- top cap -->
  <circle cx="48" cy="28" r="3" fill="url(#g)"/>
</svg>
